<mxfile host="app.diagrams.net" modified="2024-05-05T06:22:50.697Z" agent="Mozilla/5.0 (Windows NT 10.0; Win64; x64) AppleWebKit/537.36 (KHTML, like Gecko) Chrome/124.0.0.0 Safari/537.36" etag="mlsz2eY70w0WCS0Ri2R5" version="24.3.1" type="device">
  <diagram name="Page-1" id="E9SEsWXslLGr3VoXJWP1">
    <mxGraphModel dx="2450" dy="1769" grid="1" gridSize="10" guides="1" tooltips="1" connect="1" arrows="1" fold="1" page="1" pageScale="1" pageWidth="850" pageHeight="1100" math="0" shadow="0">
      <root>
        <mxCell id="0" />
        <mxCell id="1" parent="0" />
        <mxCell id="YYY4ZShFinPEGrgD43Uc-1" value="Windows" style="swimlane;whiteSpace=wrap;html=1;fontStyle=0" vertex="1" parent="1">
          <mxGeometry x="-50" y="160" width="360" height="290" as="geometry" />
        </mxCell>
        <mxCell id="YYY4ZShFinPEGrgD43Uc-11" value="&lt;img src=&quot;data:image/png;base64,iVBORw0KGgoAAAANSUhEUgAAAL0AAAB1CAIAAACUDne+AAAAAXNSR0IArs4c6QAAAARnQU1BAACxjwv8YQUAAAAJcEhZcwAADsMAAA7DAcdvqGQAAAASdEVYdFNvZnR3YXJlAEdyZWVuc2hvdF5VCAUAAAcQSURBVHhe7ZzbbxVVFMbPf+KDL/4pPvjgg08K3lpJNE2qoAjaYETBJmgIYiAmEi+US9tAEXuaUuQBqdqIl/iAqA3F+KDRB9DEWIRI/eh3WF3uc+tZnTlTpt+XL5M9a6+9Z+j6de9zSmYqC5LUucSNFJG4kSISN1JE4kaKSNxIEYkbKSJxI0VU+Xv+mix3anEjRyxu5IjFjRyxuJEjFjdyxOJGjljcyBGLGznijrmZnL3+xMTNB44v0P1T//7w+z9Jjlx6d8xNb3UJGnrDxM0rfwmdteWOuUmgaWEsS5OzN5LhcjmcIzcw0EmGt/aFi98/uP4xHJO4vNpcef/wsSTU2gkZbZ0Ml8vhSk/f5gMHR5JoCydYtHUyXC6HKwcODgOdkbFq0tHMCRZtnQw3v7H7zeHR48npL7/+9mRfP/epq3/8+dyWgbvuvgdGLyKIoxc5aOP40MOPT382Y5loM8ghfnI5c1feHRothBuUGcVGydE2IIwbosDaGxbW4HDjCaMQx9FYRObX33yLhpyTC9unDBG0UWwjgEG/tMCghAnIJBk4vvfB0PYdg0DEenFkQ87blaHhsSTU2gkWbZ0M9yYEKDzKT4CMGy4n3lycELel5fJPP3Mg2ohzTrQtmRE5D+f7PRxOhnuj5Cg8NhQuG4j49caC3kwYn5jc//Y7OLVVB/k+DXGhk6uL5AZ1RclhlJkR4wZdKLzFvbGiIIcLDDLRJmEwGCIrXJbYlvNwx9ysO5mS0cK91TZ/9wMZ+AYEXHhq3LBtX45g24nQsCHMMby4ScF+TjkPd8xN9ccbPXX/RdXQGyYWTs1eT4bL5XDH3MgyLG7kiMWNHLG4kSMWN3LE4kaOWNzIEYsbOWJxI0es9yZJEYkbKSJxI0UkbqSIxI0UkbiRIhI3UkTiRoooyM3Z6ZmNL7zS07c58dNbXh6fPFNLksqrIDdPbRrY8fpbH1anvMHN89tew3H0RLWWJ5VUQW4AB0CpndzWreDE6ZGx8Ya9UpmUNTeLwaPHPkL71JmzjEvlU5bc4BPP4O79iMP4oNP37LZaR1c0duLk1oGX5ufna+dSnsqSm3Off/HM1u3oMtc6pNIpS2680CtuSqwiuTn/5Vf2OCZ2GUSwy2Cv+eTcpzgyjhwmI2HP3n04Mo424yZk2j5laesf7b1y9SoTpAxVJDeHj46wqCg5C0xu7r3v/kuX5hDHcd0jPWwTBY8X2ybjBvl9/Rs589zcZXGTh1bFPoXSotKoN4GwNQbiGoMGjn6N8asL5bkx2qScVCQ3KC2WFm4oXGPquQEuDblB8s7BXQ25Qdtm9lNJGaowblBa202yXW9q54vTYvsTOnmoMG58mdH2642P2wdbcGOfezwQgIk82YRosIuzsS1lq8K4YVG5SaHh15tDR4a5yxgoELjBxmRDuAhB9dxgCIf7NClbBbnxfxpuaPQip5a9bJGbhitEsk/Vq22ClKGC3NT/aTjxphdfnZ45X8tetsLctBgo5aEgNzkpwA2HYEvSYtNNrS5upDtF4kaKSNxIEYkbKSJxI0UkbqSIxI0UkbiRIhI3UkTiRopI3EgRiRspInEjRSRupIjEjRRRkBu9/2aNK8iN3n+zxhXkBnAAlNrJbd0K6v03a0NZc7MY1PtvSq8sueny+2/sab3aeQ4a0zt1mihLbrr8/psucCM1U5bceKFX3JRYhXHD51cavuqGj/Ey6LcJJDDIZM8NuzgDNheftjh06XEZeOr0xx44y7dnik0YbjdQn+bv04K8EC7BLv/IaZlUMDf2Y8XRXj6CarHeLAzbOFptkHbhu4tos/zosnkw7aEjw1ZpVh1CA6cIQnv27rN8y2E7eQgLM7MXybgWr8536vDebM7kWnarmNDmL5MK5oZMUPgRWxlMDNYnQ+QGv9nN3nZjxfZVhzgQwWRaxHFqaZDnJrmKdfG02ZzJpUujVcQN+CA37OL6DyNoVWEmhSD3Aj8JhFMby9/7ZjW2GczJtuIHIo5e5PByuCu/ONk/J/l3iZv/Kb/1JokvZ71BOa0LDWQiH22rGYK2cTDOxQNpOwd3ocF4vfxsFFFDPOmyqdDwt2r3wNPSqGBu7EdvpYW5GCDIInERwtFqj17/+QY2dPwyYEP8PBASGn6+MSGBkxgcaHB+wyKZ0+axBMZxFXGzpKy4afaqG+4aKAxyfG0YZ7Jxgy7UCXEUm+VkGhYAqxnSeCE4+T6FUYzDxKWeGz/c7sdfi2kIiptWWvn7b5Kfbze1/FoCEQIkJQpys/L33xTFDa+7HBoKJHv1K8jNytXNqvBa3FDgttBYvhabZiqMG+mOlriRIhI3UkTiRopI3EgRiRspInEjRSRupIjEjRSRuJEiEjdSROJGikjcSBGJGykicSNFJG6kiMSNFJG4kSISN1JE4kbqXAsL/wEeerl4Pb8eMwAAAABJRU5ErkJggg==&quot; alt=&quot;&quot;&gt;" style="text;html=1;align=center;verticalAlign=middle;resizable=0;points=[];autosize=1;strokeColor=none;fillColor=none;fontStyle=0" vertex="1" parent="YYY4ZShFinPEGrgD43Uc-1">
          <mxGeometry x="15" y="35" width="210" height="130" as="geometry" />
        </mxCell>
        <mxCell id="YYY4ZShFinPEGrgD43Uc-23" value="&lt;span&gt;Service.yaml&lt;/span&gt;" style="text;html=1;align=center;verticalAlign=middle;resizable=0;points=[];autosize=1;strokeColor=none;fillColor=none;fontStyle=0" vertex="1" parent="YYY4ZShFinPEGrgD43Uc-1">
          <mxGeometry x="40" y="240" width="90" height="30" as="geometry" />
        </mxCell>
        <mxCell id="YYY4ZShFinPEGrgD43Uc-21" value="deploy.yaml" style="text;html=1;align=center;verticalAlign=middle;resizable=0;points=[];autosize=1;strokeColor=none;fillColor=none;fontStyle=0" vertex="1" parent="YYY4ZShFinPEGrgD43Uc-1">
          <mxGeometry x="40" y="210" width="90" height="30" as="geometry" />
        </mxCell>
        <mxCell id="YYY4ZShFinPEGrgD43Uc-34" style="edgeStyle=orthogonalEdgeStyle;rounded=0;orthogonalLoop=1;jettySize=auto;html=1;fontStyle=0" edge="1" parent="YYY4ZShFinPEGrgD43Uc-1" source="YYY4ZShFinPEGrgD43Uc-12">
          <mxGeometry relative="1" as="geometry">
            <mxPoint x="190" y="195" as="targetPoint" />
          </mxGeometry>
        </mxCell>
        <mxCell id="YYY4ZShFinPEGrgD43Uc-12" value="&lt;span&gt;Dockerfile&lt;/span&gt;" style="text;html=1;align=center;verticalAlign=middle;resizable=0;points=[];autosize=1;strokeColor=none;fillColor=none;fontStyle=0" vertex="1" parent="YYY4ZShFinPEGrgD43Uc-1">
          <mxGeometry x="40" y="180" width="80" height="30" as="geometry" />
        </mxCell>
        <mxCell id="YYY4ZShFinPEGrgD43Uc-32" style="edgeStyle=orthogonalEdgeStyle;rounded=0;orthogonalLoop=1;jettySize=auto;html=1;fontStyle=0" edge="1" parent="YYY4ZShFinPEGrgD43Uc-1" source="YYY4ZShFinPEGrgD43Uc-24">
          <mxGeometry relative="1" as="geometry">
            <mxPoint x="210" y="175" as="targetPoint" />
          </mxGeometry>
        </mxCell>
        <mxCell id="YYY4ZShFinPEGrgD43Uc-24" value="Main.tf" style="text;html=1;align=center;verticalAlign=middle;resizable=0;points=[];autosize=1;strokeColor=none;fillColor=none;fontStyle=0" vertex="1" parent="YYY4ZShFinPEGrgD43Uc-1">
          <mxGeometry x="40" y="160" width="60" height="30" as="geometry" />
        </mxCell>
        <mxCell id="YYY4ZShFinPEGrgD43Uc-33" value="Iac Testing" style="text;html=1;align=center;verticalAlign=middle;resizable=0;points=[];autosize=1;strokeColor=none;fillColor=none;fontStyle=0" vertex="1" parent="YYY4ZShFinPEGrgD43Uc-1">
          <mxGeometry x="210" y="160" width="80" height="30" as="geometry" />
        </mxCell>
        <mxCell id="YYY4ZShFinPEGrgD43Uc-35" value="Docker requirement Testing" style="text;html=1;align=center;verticalAlign=middle;resizable=0;points=[];autosize=1;strokeColor=none;fillColor=none;fontStyle=0" vertex="1" parent="YYY4ZShFinPEGrgD43Uc-1">
          <mxGeometry x="190" y="180" width="170" height="30" as="geometry" />
        </mxCell>
        <mxCell id="YYY4ZShFinPEGrgD43Uc-37" style="edgeStyle=orthogonalEdgeStyle;rounded=0;orthogonalLoop=1;jettySize=auto;html=1;fontStyle=0" edge="1" parent="YYY4ZShFinPEGrgD43Uc-1" source="YYY4ZShFinPEGrgD43Uc-36">
          <mxGeometry relative="1" as="geometry">
            <mxPoint x="300" y="-170" as="targetPoint" />
          </mxGeometry>
        </mxCell>
        <mxCell id="YYY4ZShFinPEGrgD43Uc-36" value="Master" style="text;html=1;align=center;verticalAlign=middle;resizable=0;points=[];autosize=1;strokeColor=#d6b656;fillColor=#fff2cc;fontStyle=0" vertex="1" parent="YYY4ZShFinPEGrgD43Uc-1">
          <mxGeometry x="270" y="35" width="60" height="30" as="geometry" />
        </mxCell>
        <mxCell id="YYY4ZShFinPEGrgD43Uc-2" value="NPM" style="text;html=1;align=center;verticalAlign=middle;resizable=0;points=[];autosize=1;strokeColor=none;fillColor=none;fontStyle=0" vertex="1" parent="1">
          <mxGeometry x="-145" y="118" width="50" height="30" as="geometry" />
        </mxCell>
        <mxCell id="YYY4ZShFinPEGrgD43Uc-3" style="edgeStyle=orthogonalEdgeStyle;rounded=0;orthogonalLoop=1;jettySize=auto;html=1;entryX=0.37;entryY=-0.02;entryDx=0;entryDy=0;entryPerimeter=0;fontStyle=0" edge="1" parent="1" source="YYY4ZShFinPEGrgD43Uc-2" target="YYY4ZShFinPEGrgD43Uc-1">
          <mxGeometry relative="1" as="geometry" />
        </mxCell>
        <mxCell id="YYY4ZShFinPEGrgD43Uc-5" style="edgeStyle=orthogonalEdgeStyle;rounded=0;orthogonalLoop=1;jettySize=auto;html=1;entryX=0;entryY=0.5;entryDx=0;entryDy=0;fontStyle=0" edge="1" parent="1" source="YYY4ZShFinPEGrgD43Uc-4" target="YYY4ZShFinPEGrgD43Uc-1">
          <mxGeometry relative="1" as="geometry" />
        </mxCell>
        <mxCell id="YYY4ZShFinPEGrgD43Uc-4" value="SNYK" style="text;html=1;align=center;verticalAlign=middle;resizable=0;points=[];autosize=1;strokeColor=none;fillColor=none;fontStyle=0" vertex="1" parent="1">
          <mxGeometry x="-150" y="158" width="60" height="30" as="geometry" />
        </mxCell>
        <mxCell id="YYY4ZShFinPEGrgD43Uc-9" style="edgeStyle=orthogonalEdgeStyle;rounded=0;orthogonalLoop=1;jettySize=auto;html=1;entryX=0.75;entryY=0;entryDx=0;entryDy=0;fontStyle=0" edge="1" parent="1" source="YYY4ZShFinPEGrgD43Uc-8" target="YYY4ZShFinPEGrgD43Uc-1">
          <mxGeometry relative="1" as="geometry" />
        </mxCell>
        <mxCell id="YYY4ZShFinPEGrgD43Uc-38" style="edgeStyle=orthogonalEdgeStyle;rounded=0;orthogonalLoop=1;jettySize=auto;html=1;fontStyle=0" edge="1" parent="1" source="YYY4ZShFinPEGrgD43Uc-8">
          <mxGeometry relative="1" as="geometry">
            <mxPoint x="340" y="40" as="targetPoint" />
          </mxGeometry>
        </mxCell>
        <mxCell id="YYY4ZShFinPEGrgD43Uc-47" style="edgeStyle=orthogonalEdgeStyle;rounded=0;orthogonalLoop=1;jettySize=auto;html=1;fontStyle=0" edge="1" parent="1" source="YYY4ZShFinPEGrgD43Uc-8">
          <mxGeometry relative="1" as="geometry">
            <mxPoint x="409.99999999999955" y="20" as="targetPoint" />
          </mxGeometry>
        </mxCell>
        <mxCell id="YYY4ZShFinPEGrgD43Uc-53" style="edgeStyle=orthogonalEdgeStyle;rounded=0;orthogonalLoop=1;jettySize=auto;html=1;fontStyle=0" edge="1" parent="1" source="YYY4ZShFinPEGrgD43Uc-8">
          <mxGeometry relative="1" as="geometry">
            <mxPoint x="379.99999999999955" y="-170" as="targetPoint" />
          </mxGeometry>
        </mxCell>
        <mxCell id="YYY4ZShFinPEGrgD43Uc-8" value="https://github.com/rushtoaksith/Shark-Secure-Pipeline/tree/master/views" style="shape=parallelogram;perimeter=parallelogramPerimeter;whiteSpace=wrap;html=1;fixedSize=1;fontStyle=0" vertex="1" parent="1">
          <mxGeometry x="-100" y="-80" width="430" height="60" as="geometry" />
        </mxCell>
        <mxCell id="YYY4ZShFinPEGrgD43Uc-10" value="Clone" style="text;html=1;align=center;verticalAlign=middle;resizable=0;points=[];autosize=1;strokeColor=none;fillColor=none;fontStyle=0" vertex="1" parent="1">
          <mxGeometry x="140" y="48" width="50" height="30" as="geometry" />
        </mxCell>
        <mxCell id="YYY4ZShFinPEGrgD43Uc-13" value="DockerHub" style="ellipse;shape=cloud;whiteSpace=wrap;html=1;fontStyle=0" vertex="1" parent="1">
          <mxGeometry x="460" y="-120" width="220" height="140" as="geometry" />
        </mxCell>
        <mxCell id="YYY4ZShFinPEGrgD43Uc-15" style="edgeStyle=orthogonalEdgeStyle;rounded=0;orthogonalLoop=1;jettySize=auto;html=1;fontStyle=0" edge="1" parent="1" source="YYY4ZShFinPEGrgD43Uc-14" target="YYY4ZShFinPEGrgD43Uc-1">
          <mxGeometry relative="1" as="geometry" />
        </mxCell>
        <mxCell id="YYY4ZShFinPEGrgD43Uc-14" value="Terraform" style="text;html=1;align=center;verticalAlign=middle;resizable=0;points=[];autosize=1;strokeColor=none;fillColor=none;fontStyle=0" vertex="1" parent="1">
          <mxGeometry x="-185" y="78" width="70" height="30" as="geometry" />
        </mxCell>
        <mxCell id="YYY4ZShFinPEGrgD43Uc-18" style="edgeStyle=orthogonalEdgeStyle;rounded=0;orthogonalLoop=1;jettySize=auto;html=1;entryX=0;entryY=0.5;entryDx=0;entryDy=0;fontStyle=0" edge="1" parent="1" source="YYY4ZShFinPEGrgD43Uc-16" target="YYY4ZShFinPEGrgD43Uc-17">
          <mxGeometry relative="1" as="geometry" />
        </mxCell>
        <mxCell id="YYY4ZShFinPEGrgD43Uc-71" style="edgeStyle=orthogonalEdgeStyle;rounded=0;orthogonalLoop=1;jettySize=auto;html=1;" edge="1" parent="1" source="YYY4ZShFinPEGrgD43Uc-16">
          <mxGeometry relative="1" as="geometry">
            <mxPoint x="-200" y="315" as="targetPoint" />
          </mxGeometry>
        </mxCell>
        <mxCell id="YYY4ZShFinPEGrgD43Uc-16" value="&lt;span&gt;K-Master&lt;/span&gt;" style="whiteSpace=wrap;html=1;aspect=fixed;fontStyle=0" vertex="1" parent="1">
          <mxGeometry x="470" y="190" width="250" height="250" as="geometry" />
        </mxCell>
        <mxCell id="YYY4ZShFinPEGrgD43Uc-17" value="&lt;span&gt;K-slave&lt;/span&gt;" style="whiteSpace=wrap;html=1;aspect=fixed;fontStyle=0" vertex="1" parent="1">
          <mxGeometry x="810" y="190" width="250" height="250" as="geometry" />
        </mxCell>
        <mxCell id="YYY4ZShFinPEGrgD43Uc-19" value="Token" style="text;html=1;align=center;verticalAlign=middle;resizable=0;points=[];autosize=1;strokeColor=none;fillColor=none;fontStyle=0" vertex="1" parent="1">
          <mxGeometry x="720" y="318" width="60" height="30" as="geometry" />
        </mxCell>
        <mxCell id="YYY4ZShFinPEGrgD43Uc-20" value="Deploy.yaml" style="text;html=1;align=center;verticalAlign=middle;resizable=0;points=[];autosize=1;strokeColor=none;fillColor=none;fontStyle=0" vertex="1" parent="1">
          <mxGeometry x="550" y="260" width="90" height="30" as="geometry" />
        </mxCell>
        <mxCell id="YYY4ZShFinPEGrgD43Uc-69" style="edgeStyle=orthogonalEdgeStyle;rounded=0;orthogonalLoop=1;jettySize=auto;html=1;" edge="1" parent="1" source="YYY4ZShFinPEGrgD43Uc-22">
          <mxGeometry relative="1" as="geometry">
            <mxPoint x="409.99999999999955" y="410" as="targetPoint" />
          </mxGeometry>
        </mxCell>
        <mxCell id="YYY4ZShFinPEGrgD43Uc-22" value="Service.yaml" style="text;html=1;align=center;verticalAlign=middle;resizable=0;points=[];autosize=1;strokeColor=none;fillColor=none;fontStyle=0" vertex="1" parent="1">
          <mxGeometry x="560" y="340" width="90" height="30" as="geometry" />
        </mxCell>
        <mxCell id="YYY4ZShFinPEGrgD43Uc-25" value="&lt;span&gt;LINUX on AWS&lt;/span&gt;" style="text;html=1;align=center;verticalAlign=middle;resizable=0;points=[];autosize=1;strokeColor=none;fillColor=none;fontStyle=0" vertex="1" parent="1">
          <mxGeometry x="515" y="438" width="110" height="30" as="geometry" />
        </mxCell>
        <mxCell id="YYY4ZShFinPEGrgD43Uc-26" value="&lt;span&gt;LINUX on AWS&lt;/span&gt;" style="text;html=1;align=center;verticalAlign=middle;resizable=0;points=[];autosize=1;strokeColor=none;fillColor=none;fontStyle=0" vertex="1" parent="1">
          <mxGeometry x="880" y="438" width="110" height="30" as="geometry" />
        </mxCell>
        <mxCell id="YYY4ZShFinPEGrgD43Uc-28" style="edgeStyle=orthogonalEdgeStyle;rounded=0;orthogonalLoop=1;jettySize=auto;html=1;fontStyle=0" edge="1" parent="1" source="YYY4ZShFinPEGrgD43Uc-27">
          <mxGeometry relative="1" as="geometry">
            <mxPoint x="-50" y="353" as="targetPoint" />
          </mxGeometry>
        </mxCell>
        <mxCell id="YYY4ZShFinPEGrgD43Uc-27" value="&lt;span&gt;Jenkins&lt;/span&gt;" style="text;html=1;align=center;verticalAlign=middle;resizable=0;points=[];autosize=1;strokeColor=none;fillColor=none;fontStyle=0" vertex="1" parent="1">
          <mxGeometry x="-265" y="300" width="60" height="30" as="geometry" />
        </mxCell>
        <mxCell id="YYY4ZShFinPEGrgD43Uc-30" style="edgeStyle=orthogonalEdgeStyle;rounded=0;orthogonalLoop=1;jettySize=auto;html=1;fontStyle=0" edge="1" parent="1" source="YYY4ZShFinPEGrgD43Uc-29">
          <mxGeometry relative="1" as="geometry">
            <mxPoint x="-50" y="403" as="targetPoint" />
          </mxGeometry>
        </mxCell>
        <mxCell id="YYY4ZShFinPEGrgD43Uc-29" value="&lt;span&gt;Java&lt;/span&gt;" style="text;html=1;align=center;verticalAlign=middle;resizable=0;points=[];autosize=1;strokeColor=none;fillColor=none;fontStyle=0" vertex="1" parent="1">
          <mxGeometry x="-205" y="388" width="50" height="30" as="geometry" />
        </mxCell>
        <mxCell id="YYY4ZShFinPEGrgD43Uc-39" style="edgeStyle=orthogonalEdgeStyle;rounded=0;orthogonalLoop=1;jettySize=auto;html=1;fontStyle=0" edge="1" parent="1" source="YYY4ZShFinPEGrgD43Uc-31">
          <mxGeometry relative="1" as="geometry">
            <mxPoint x="345" y="470" as="targetPoint" />
          </mxGeometry>
        </mxCell>
        <mxCell id="YYY4ZShFinPEGrgD43Uc-31" value="Job1" style="text;html=1;align=center;verticalAlign=middle;resizable=0;points=[];autosize=1;strokeColor=none;fillColor=none;fontStyle=0" vertex="1" parent="1">
          <mxGeometry x="320" y="40" width="50" height="30" as="geometry" />
        </mxCell>
        <mxCell id="YYY4ZShFinPEGrgD43Uc-40" value="C:\Users\Dell\AppData\Local\Jenkins\.jenkins\workspace\Job1" style="text;html=1;align=center;verticalAlign=middle;resizable=0;points=[];autosize=1;strokeColor=none;fillColor=none;fontStyle=0" vertex="1" parent="1">
          <mxGeometry x="75" y="468" width="350" height="30" as="geometry" />
        </mxCell>
        <mxCell id="YYY4ZShFinPEGrgD43Uc-42" style="edgeStyle=orthogonalEdgeStyle;rounded=0;orthogonalLoop=1;jettySize=auto;html=1;fontStyle=0" edge="1" parent="1" source="YYY4ZShFinPEGrgD43Uc-41">
          <mxGeometry relative="1" as="geometry">
            <mxPoint x="40" y="-97.00000000000023" as="targetPoint" />
          </mxGeometry>
        </mxCell>
        <mxCell id="YYY4ZShFinPEGrgD43Uc-41" value="&lt;span&gt;Github-webhook&lt;/span&gt;" style="text;html=1;align=center;verticalAlign=middle;resizable=0;points=[];autosize=1;strokeColor=none;fillColor=none;fontStyle=0" vertex="1" parent="1">
          <mxGeometry x="215" y="-112" width="110" height="30" as="geometry" />
        </mxCell>
        <mxCell id="YYY4ZShFinPEGrgD43Uc-45" style="edgeStyle=orthogonalEdgeStyle;rounded=0;orthogonalLoop=1;jettySize=auto;html=1;fontStyle=0" edge="1" parent="1" source="YYY4ZShFinPEGrgD43Uc-43" target="YYY4ZShFinPEGrgD43Uc-46">
          <mxGeometry relative="1" as="geometry">
            <mxPoint x="-80" y="-120" as="targetPoint" />
          </mxGeometry>
        </mxCell>
        <mxCell id="YYY4ZShFinPEGrgD43Uc-43" value="ngrok" style="text;html=1;align=center;verticalAlign=middle;resizable=0;points=[];autosize=1;strokeColor=none;fillColor=none;fontStyle=0" vertex="1" parent="1">
          <mxGeometry x="-20" y="-112" width="50" height="30" as="geometry" />
        </mxCell>
        <mxCell id="YYY4ZShFinPEGrgD43Uc-46" value="proxy" style="text;html=1;align=center;verticalAlign=middle;resizable=0;points=[];autosize=1;strokeColor=none;fillColor=none;fontStyle=0" vertex="1" parent="1">
          <mxGeometry x="-185" y="-132" width="50" height="30" as="geometry" />
        </mxCell>
        <mxCell id="YYY4ZShFinPEGrgD43Uc-49" style="edgeStyle=orthogonalEdgeStyle;rounded=0;orthogonalLoop=1;jettySize=auto;html=1;fontStyle=0" edge="1" parent="1" source="YYY4ZShFinPEGrgD43Uc-48" target="YYY4ZShFinPEGrgD43Uc-17">
          <mxGeometry relative="1" as="geometry" />
        </mxCell>
        <mxCell id="YYY4ZShFinPEGrgD43Uc-50" style="edgeStyle=orthogonalEdgeStyle;rounded=0;orthogonalLoop=1;jettySize=auto;html=1;fontStyle=0" edge="1" parent="1" source="YYY4ZShFinPEGrgD43Uc-48" target="YYY4ZShFinPEGrgD43Uc-16">
          <mxGeometry relative="1" as="geometry" />
        </mxCell>
        <mxCell id="YYY4ZShFinPEGrgD43Uc-48" value="Job2" style="text;html=1;align=center;verticalAlign=middle;resizable=0;points=[];autosize=1;strokeColor=none;fillColor=none;fontStyle=0" vertex="1" parent="1">
          <mxGeometry x="385" y="38" width="50" height="30" as="geometry" />
        </mxCell>
        <mxCell id="YYY4ZShFinPEGrgD43Uc-51" value="Testing the code" style="text;html=1;align=center;verticalAlign=middle;resizable=0;points=[];autosize=1;strokeColor=none;fillColor=none;fontStyle=0" vertex="1" parent="1">
          <mxGeometry x="350" y="130" width="110" height="30" as="geometry" />
        </mxCell>
        <mxCell id="YYY4ZShFinPEGrgD43Uc-52" value="&lt;span&gt;Setting up Environment&lt;/span&gt;" style="text;html=1;align=center;verticalAlign=middle;resizable=0;points=[];autosize=1;strokeColor=none;fillColor=none;fontStyle=0" vertex="1" parent="1">
          <mxGeometry x="455" y="20" width="150" height="30" as="geometry" />
        </mxCell>
        <mxCell id="YYY4ZShFinPEGrgD43Uc-55" style="edgeStyle=orthogonalEdgeStyle;rounded=0;orthogonalLoop=1;jettySize=auto;html=1;fontStyle=0" edge="1" parent="1" source="YYY4ZShFinPEGrgD43Uc-54">
          <mxGeometry relative="1" as="geometry">
            <mxPoint x="439.99999999999955" y="-187.00000000000023" as="targetPoint" />
          </mxGeometry>
        </mxCell>
        <mxCell id="YYY4ZShFinPEGrgD43Uc-54" value="&lt;span&gt;Job3&lt;/span&gt;" style="text;html=1;align=center;verticalAlign=middle;resizable=0;points=[];autosize=1;strokeColor=none;fillColor=none;fontStyle=0" vertex="1" parent="1">
          <mxGeometry x="345" y="-202" width="50" height="30" as="geometry" />
        </mxCell>
        <mxCell id="YYY4ZShFinPEGrgD43Uc-57" style="edgeStyle=orthogonalEdgeStyle;rounded=0;orthogonalLoop=1;jettySize=auto;html=1;" edge="1" parent="1" source="YYY4ZShFinPEGrgD43Uc-56" target="YYY4ZShFinPEGrgD43Uc-58">
          <mxGeometry relative="1" as="geometry">
            <mxPoint x="629.9999999999995" y="-187.00000000000023" as="targetPoint" />
          </mxGeometry>
        </mxCell>
        <mxCell id="YYY4ZShFinPEGrgD43Uc-56" value="Build my Dockerfile" style="text;html=1;align=center;verticalAlign=middle;resizable=0;points=[];autosize=1;strokeColor=none;fillColor=none;fontStyle=0" vertex="1" parent="1">
          <mxGeometry x="430" y="-202" width="130" height="30" as="geometry" />
        </mxCell>
        <mxCell id="YYY4ZShFinPEGrgD43Uc-61" style="edgeStyle=orthogonalEdgeStyle;rounded=0;orthogonalLoop=1;jettySize=auto;html=1;" edge="1" parent="1" source="YYY4ZShFinPEGrgD43Uc-58">
          <mxGeometry relative="1" as="geometry">
            <mxPoint x="869.9999999999995" y="-165" as="targetPoint" />
          </mxGeometry>
        </mxCell>
        <mxCell id="YYY4ZShFinPEGrgD43Uc-58" value="Docker Image to be Tested" style="text;html=1;align=center;verticalAlign=middle;resizable=0;points=[];autosize=1;strokeColor=none;fillColor=none;" vertex="1" parent="1">
          <mxGeometry x="630" y="-180" width="170" height="30" as="geometry" />
        </mxCell>
        <mxCell id="YYY4ZShFinPEGrgD43Uc-59" value="Trivyy" style="text;html=1;align=center;verticalAlign=middle;resizable=0;points=[];autosize=1;strokeColor=none;fillColor=none;" vertex="1" parent="1">
          <mxGeometry x="652" y="-242" width="60" height="30" as="geometry" />
        </mxCell>
        <mxCell id="YYY4ZShFinPEGrgD43Uc-60" style="edgeStyle=orthogonalEdgeStyle;rounded=0;orthogonalLoop=1;jettySize=auto;html=1;entryX=0.576;entryY=0.092;entryDx=0;entryDy=0;entryPerimeter=0;" edge="1" parent="1" source="YYY4ZShFinPEGrgD43Uc-59" target="YYY4ZShFinPEGrgD43Uc-58">
          <mxGeometry relative="1" as="geometry" />
        </mxCell>
        <mxCell id="YYY4ZShFinPEGrgD43Uc-65" style="edgeStyle=orthogonalEdgeStyle;rounded=0;orthogonalLoop=1;jettySize=auto;html=1;" edge="1" parent="1" source="YYY4ZShFinPEGrgD43Uc-62">
          <mxGeometry relative="1" as="geometry">
            <mxPoint x="1019.9999999999995" y="-120" as="targetPoint" />
          </mxGeometry>
        </mxCell>
        <mxCell id="YYY4ZShFinPEGrgD43Uc-62" value="Kubernetes Cluster&lt;br&gt;Tested" style="text;html=1;align=center;verticalAlign=middle;resizable=0;points=[];autosize=1;strokeColor=none;fillColor=none;" vertex="1" parent="1">
          <mxGeometry x="860" y="-180" width="130" height="40" as="geometry" />
        </mxCell>
        <mxCell id="YYY4ZShFinPEGrgD43Uc-63" value="KubeBecnh" style="text;html=1;align=center;verticalAlign=middle;resizable=0;points=[];autosize=1;strokeColor=none;fillColor=none;" vertex="1" parent="1">
          <mxGeometry x="825" y="-242" width="90" height="30" as="geometry" />
        </mxCell>
        <mxCell id="YYY4ZShFinPEGrgD43Uc-64" style="edgeStyle=orthogonalEdgeStyle;rounded=0;orthogonalLoop=1;jettySize=auto;html=1;entryX=0.49;entryY=-0.04;entryDx=0;entryDy=0;entryPerimeter=0;" edge="1" parent="1" source="YYY4ZShFinPEGrgD43Uc-63" target="YYY4ZShFinPEGrgD43Uc-62">
          <mxGeometry relative="1" as="geometry" />
        </mxCell>
        <mxCell id="YYY4ZShFinPEGrgD43Uc-67" style="edgeStyle=orthogonalEdgeStyle;rounded=0;orthogonalLoop=1;jettySize=auto;html=1;" edge="1" parent="1" source="YYY4ZShFinPEGrgD43Uc-66" target="YYY4ZShFinPEGrgD43Uc-13">
          <mxGeometry relative="1" as="geometry" />
        </mxCell>
        <mxCell id="YYY4ZShFinPEGrgD43Uc-66" value="Push IMage" style="text;html=1;align=center;verticalAlign=middle;resizable=0;points=[];autosize=1;strokeColor=none;fillColor=none;" vertex="1" parent="1">
          <mxGeometry x="955" y="-112" width="90" height="30" as="geometry" />
        </mxCell>
        <mxCell id="YYY4ZShFinPEGrgD43Uc-68" style="edgeStyle=orthogonalEdgeStyle;rounded=0;orthogonalLoop=1;jettySize=auto;html=1;entryX=-0.017;entryY=0.3;entryDx=0;entryDy=0;entryPerimeter=0;" edge="1" parent="1" source="YYY4ZShFinPEGrgD43Uc-13" target="YYY4ZShFinPEGrgD43Uc-20">
          <mxGeometry relative="1" as="geometry" />
        </mxCell>
        <mxCell id="YYY4ZShFinPEGrgD43Uc-70" value="Random Port" style="text;html=1;align=center;verticalAlign=middle;resizable=0;points=[];autosize=1;strokeColor=none;fillColor=none;fontStyle=1" vertex="1" parent="1">
          <mxGeometry x="365" y="418" width="90" height="30" as="geometry" />
        </mxCell>
        <mxCell id="YYY4ZShFinPEGrgD43Uc-73" value="Slave" style="text;strokeColor=none;align=center;fillColor=none;html=1;verticalAlign=middle;whiteSpace=wrap;rounded=0;" vertex="1" parent="1">
          <mxGeometry x="385" y="280" width="60" height="30" as="geometry" />
        </mxCell>
      </root>
    </mxGraphModel>
  </diagram>
</mxfile>
